<svg width="140" height="140" viewBox="0 0 140 140" fill="none" xmlns="http://www.w3.org/2000/svg">
<g clip-path="url(#clip0_201_20)">
<path d="M58.344 35.04H24.936L28.104 19.2H113.64L110.328 35.04H76.92L60.072 120H41.352L58.344 35.04ZM44.52 270.224C44.328 271.76 44.232 272.864 44.232 273.536C44.232 279.296 47.256 282.176 53.304 282.176C57.048 282.176 60.408 281.168 63.384 279.152L66.552 292.4C61.656 295.472 55.464 297.008 47.976 297.008C41.352 297.008 36.024 295.184 31.992 291.536C27.96 287.888 25.944 282.848 25.944 276.416C25.944 274.304 26.136 272.288 26.52 270.368L33.864 234.08H21.336L24.216 219.68H36.744L40.2 202.112H58.2L54.6 219.68H75.336L72.456 234.08H51.72L44.52 270.224Z" fill="black"/>
<circle cx="88.5" cy="110.5" r="9.5" fill="black"/>
<rect x="25" y="19" width="89" height="16" fill="black"/>
</g>
<defs>
<clipPath id="clip0_201_20">
<rect width="140" height="140" fill="white"/>
</clipPath>
</defs>
</svg>
