<svg width="140" height="140" viewBox="0 0 140 140" fill="none" xmlns="http://www.w3.org/2000/svg">
<g clip-path="url(#clip0_603_27)">
<path d="M41.352 120L58.344 35.04H24.936L28.104 19.2H113.496L110.328 35.04H76.92L60.072 120H41.352ZM47.976 297.008C42.984 297.008 38.664 295.952 35.016 293.84C31.464 291.632 28.872 288.56 27.24 284.624C25.704 280.592 25.464 275.84 26.52 270.368L40.2 202.112H58.2L44.52 270.224C43.944 273.776 44.328 276.656 45.672 278.864C47.016 281.072 49.56 282.176 53.304 282.176C55.032 282.176 56.76 281.936 58.488 281.456C60.312 280.88 61.944 280.112 63.384 279.152L66.552 292.4C63.864 294.128 60.888 295.328 57.624 296C54.36 296.672 51.144 297.008 47.976 297.008ZM21.336 234.08L24.216 219.68H75.336L72.456 234.08H21.336Z" fill="white"/>
<circle cx="88.5" cy="110.5" r="9.5" fill="white"/>
<rect x="25" y="19" width="89" height="16" fill="white"/>
</g>
<defs>
<clipPath id="clip0_603_27">
<rect width="140" height="140" fill="white"/>
</clipPath>
</defs>
</svg>
